<svg width="672" height="672" viewBox="0 0 672 672" fill="none" xmlns="http://www.w3.org/2000/svg">
<path d="M339.029 45.2852L351.529 56.1846H351.528C435.849 129.616 523.085 199.666 611.455 268.442C614.548 270.848 617.431 273.384 619.654 275.7H619.815L621.01 277.065C622.162 278.382 623.177 279.775 623.739 281.146C624.014 281.818 624.324 282.826 624.219 283.985C624.096 285.342 623.4 286.729 622.02 287.592L621.919 287.654L621.816 287.711L614.116 291.911L614.089 291.926L614.063 291.939C612.867 292.569 611.66 292.583 610.91 292.525C610.091 292.462 609.281 292.267 608.547 292.039C607.073 291.58 605.397 290.819 603.658 289.893C600.148 288.023 595.882 285.213 591.552 281.863L591.542 281.856C579.929 272.815 568.443 263.505 556.978 254.353C555.523 372.035 557.7 489.789 557.7 608C557.7 610.624 557.262 613.785 556.299 616.123C555.836 617.248 555.154 618.476 554.128 619.409C553.074 620.368 551.183 621.349 548.973 620.607L541.051 618.231H541.05C539.405 617.738 538.284 616.615 537.572 615.619C536.844 614.602 536.323 613.418 535.943 612.239C535.18 609.872 534.8 606.934 534.8 603.8C534.8 486.202 532.8 368.171 534.3 250.049C534.305 245.614 534.981 241.266 535.971 237.639C510.798 217.727 485.393 197.847 460.376 177.503L460.363 177.492L460.349 177.48L395.849 124.081L395.823 124.06L395.797 124.037L335.708 72.5332L330.562 76.5527L314.294 89.5273L281.921 115.806L281.92 115.805L217.761 169.272L217.76 169.271C175.1 205.038 132.651 241.282 89.22 276.507L89.2093 276.515C81.9287 282.38 74.471 287.603 67.9329 291.245L65.1097 292.998L65.0169 293.056L64.9212 293.108C63.7782 293.734 62.7043 294.256 61.7347 294.635C60.848 294.981 59.7255 295.341 58.5892 295.373C58.0107 295.39 57.1026 295.334 56.1624 294.865C55.0828 294.327 54.2303 293.37 53.8568 292.14C53.5304 291.064 53.6656 290.101 53.8118 289.502C53.9634 288.881 54.2072 288.326 54.4437 287.87H54.4427L61.6429 273.87C62.8301 271.516 65.1206 268.701 67.8265 265.881C70.6188 262.971 74.1159 259.787 77.973 256.699L86.0794 250.072C126.579 216.878 166.585 182.812 206.932 149.033L206.943 149.024L271.643 95.2246L271.659 95.21L271.676 95.1973L304.376 68.5967L304.394 68.582L304.412 68.5674L320.912 55.4668L320.916 55.4648L333.916 45.165L336.523 43.0996L339.029 45.2852ZM278.86 233.681C292.094 198.565 326.588 189.817 354.673 198.634C368.737 203.049 381.517 211.916 389.572 224.379C397.647 236.873 400.824 252.764 396.02 270.82C394.454 280.688 387.453 290.616 379.066 298.438C370.558 306.372 359.939 312.784 350.333 315.09L350.332 315.089C328.892 320.632 304.653 313.261 290.06 296.2V296.199C275.239 279.617 270.427 254.691 278.86 233.681ZM344.284 218.896C326.165 215.244 306.291 222.824 299.71 243.417L298.821 246.2H298.778C295.547 258.786 299.103 272.962 308.141 282.084L308.18 282.124L308.218 282.164C317.708 292.286 332.844 296.521 346.053 292.567L346.143 292.542C359.307 288.935 370.084 277.505 372.78 264.205C373.149 262.217 374.009 260.491 374.607 259.327C375.848 247.946 372.699 238.882 367.223 232.189C361.585 225.298 353.305 220.713 344.284 218.896ZM422.2 571.5C422.2 578.67 421.589 585.729 420.427 591.354L419.928 593.955L419.922 593.984C419.712 595.034 419.433 596.032 419.063 596.914C418.722 597.725 418.164 598.782 417.214 599.603C416.097 600.567 414.293 601.259 412.327 600.511C410.765 599.916 409.885 598.678 409.438 597.904L409.431 597.891L409.423 597.878L402.824 586.278L402.82 586.271C401.618 584.15 400.827 581.165 400.306 578.078C399.767 574.882 399.453 571.175 399.401 567.354L399.4 567.339V567.322L398.51 409.507C396.827 408.776 394.702 408.096 392.39 407.617L392.35 407.608L392.311 407.6C386.859 406.356 380.757 405.576 374.615 404.981V404.98C362.313 403.9 349.674 403.701 337.063 403.899L337.062 403.898C324.476 404.197 311.803 404.99 299.342 406.375C293.169 407.061 287.109 408.039 281.361 409.306L281.323 409.314L281.284 409.322C278.972 409.785 276.791 410.375 274.796 411.036L274.5 604.889L481.59 604.399H481.6C491.226 604.399 500.62 605.005 508.065 606.14H508.066L511.566 606.64L512.886 606.828L513.018 606.96C513.839 607.111 514.599 607.287 515.282 607.489C516.24 607.773 517.388 608.206 518.331 608.934C518.817 609.308 519.484 609.94 519.909 610.906C520.39 611.995 520.437 613.237 519.992 614.39C519.597 615.415 518.922 616.092 518.424 616.493C517.907 616.91 517.355 617.213 516.867 617.437L516.848 617.444L516.829 617.453L502.033 624.05L502.034 624.051C499.562 625.156 495.89 625.91 491.865 626.407C487.729 626.918 482.841 627.199 477.708 627.199L128.709 628H128.7C128.326 628 127.654 628.059 126.56 628.174C125.563 628.278 124.317 628.415 123.082 628.502C121.86 628.588 120.487 628.639 119.207 628.535C118.081 628.444 116.327 628.191 114.875 627.154L113.147 625.92L113.201 623.797L113.301 619.897L113.401 614.821L113.6 600.843V579.318L113.522 558.985C113.494 550.856 113.463 541.375 113.425 530.539C113.35 508.865 113.25 481.766 113.1 449.219V449.207C113 391.429 112.7 333.576 113.801 275.524V275.515C113.904 270.663 114.418 265.753 115.312 262.161C115.696 260.428 116.226 258.778 116.972 257.521C117.326 256.925 117.964 256.007 119.02 255.376C119.597 255.031 120.376 254.73 121.31 254.711C122.159 254.694 122.93 254.915 123.576 255.266L131.407 259.231L131.977 259.52L132.246 259.789C133.012 260.356 133.512 261.047 133.823 261.557C134.258 262.271 134.578 263.055 134.824 263.796C135.317 265.283 135.679 267.115 135.951 269.094C136.498 273.087 136.751 278.271 136.7 283.837V283.869C135.7 341.117 135.999 398.668 136.2 456.081L136.6 542.281V542.29L136.7 585.391V585.399C136.7 589.074 136.198 593.778 135.981 597.638C135.822 600.456 135.795 603.007 136.025 605.2H136.79L252.334 604.911C252.06 602.704 251.9 600.272 251.9 597.7V597.693L252.2 405.394L252.201 405.329L252.202 405.265C252.352 400.856 254.818 397.298 257.424 394.872C259.973 392.499 263.126 390.756 265.869 389.991C269.565 388.662 273.111 387.619 276.694 386.882C283.573 385.346 290.313 384.43 296.918 383.629L296.934 383.627L296.949 383.625C310.286 382.109 323.507 381.303 336.809 381.001H336.825L336.839 381C350.117 380.799 363.356 380.999 376.829 382.113L376.843 382.114L376.857 382.116C383.674 382.727 390.569 383.648 397.703 385.303H397.702C401.302 386.126 405.082 387.194 409.205 389.232C411.913 390.276 414.91 392.545 417.186 395.305C419.5 398.11 421.583 402.056 421.3 406.506L422.2 571.478V571.5Z" fill="#1C1C1C" stroke="#1C1C1C" stroke-width="8"/>
</svg>
